<mxfile host="app.diagrams.net" agent="Mozilla/5.0 (Windows NT 10.0; Win64; x64) AppleWebKit/537.36 (KHTML, like Gecko) Chrome/134.0.0.0 Safari/537.36" version="26.2.4">
  <diagram name="Страница — 1" id="5RWuW9Xk4jRM9uD_GGZx">
    <mxGraphModel dx="2255" dy="785" grid="1" gridSize="10" guides="1" tooltips="1" connect="1" arrows="1" fold="1" page="1" pageScale="1" pageWidth="827" pageHeight="1169" math="0" shadow="0">
      <root>
        <mxCell id="0" />
        <mxCell id="1" parent="0" />
        <mxCell id="5HpX7BQeGc_26zsiggS--1" value="Покупатель" style="shape=umlActor;verticalLabelPosition=bottom;verticalAlign=top;html=1;outlineConnect=0;" vertex="1" parent="1">
          <mxGeometry x="450" y="200" width="30" height="60" as="geometry" />
        </mxCell>
        <mxCell id="5HpX7BQeGc_26zsiggS--2" value="Звероферма" style="shape=umlActor;verticalLabelPosition=bottom;verticalAlign=top;html=1;outlineConnect=0;" vertex="1" parent="1">
          <mxGeometry x="270" y="180" width="30" height="60" as="geometry" />
        </mxCell>
        <mxCell id="5HpX7BQeGc_26zsiggS--3" value="Менеджер аукциона" style="shape=umlActor;verticalLabelPosition=bottom;verticalAlign=top;html=1;outlineConnect=0;" vertex="1" parent="1">
          <mxGeometry x="30" y="170" width="30" height="60" as="geometry" />
        </mxCell>
        <mxCell id="5HpX7BQeGc_26zsiggS--4" value="Администратор" style="shape=umlActor;verticalLabelPosition=bottom;verticalAlign=top;html=1;outlineConnect=0;" vertex="1" parent="1">
          <mxGeometry x="-170" y="170" width="30" height="60" as="geometry" />
        </mxCell>
        <mxCell id="5HpX7BQeGc_26zsiggS--7" value="Гость" style="shape=umlActor;verticalLabelPosition=bottom;verticalAlign=top;html=1;outlineConnect=0;" vertex="1" parent="1">
          <mxGeometry x="670" y="210" width="30" height="60" as="geometry" />
        </mxCell>
        <mxCell id="5HpX7BQeGc_26zsiggS--8" value="Добавить звероферму" style="ellipse;whiteSpace=wrap;html=1;" vertex="1" parent="1">
          <mxGeometry x="-300" y="340" width="140" height="70" as="geometry" />
        </mxCell>
        <mxCell id="5HpX7BQeGc_26zsiggS--9" value="Удалить звероферму" style="ellipse;whiteSpace=wrap;html=1;" vertex="1" parent="1">
          <mxGeometry x="-130" y="330" width="140" height="70" as="geometry" />
        </mxCell>
        <mxCell id="5HpX7BQeGc_26zsiggS--10" value="Зарегистрировать партию" style="ellipse;whiteSpace=wrap;html=1;" vertex="1" parent="1">
          <mxGeometry x="50" y="430" width="140" height="70" as="geometry" />
        </mxCell>
        <mxCell id="5HpX7BQeGc_26zsiggS--11" value="Проверить качество" style="ellipse;whiteSpace=wrap;html=1;" vertex="1" parent="1">
          <mxGeometry x="20" y="330" width="140" height="70" as="geometry" />
        </mxCell>
        <mxCell id="5HpX7BQeGc_26zsiggS--12" value="Предоставить данные о шкурках (шкурках, Карл!)" style="ellipse;whiteSpace=wrap;html=1;" vertex="1" parent="1">
          <mxGeometry x="200" y="310" width="150" height="90" as="geometry" />
        </mxCell>
        <mxCell id="5HpX7BQeGc_26zsiggS--13" value="Сделать ставку" style="ellipse;whiteSpace=wrap;html=1;" vertex="1" parent="1">
          <mxGeometry x="400" y="340" width="140" height="70" as="geometry" />
        </mxCell>
        <mxCell id="5HpX7BQeGc_26zsiggS--14" value="" style="edgeStyle=entityRelationEdgeStyle;fontSize=12;html=1;endArrow=blockThin;endFill=1;startArrow=none;rounded=0;startFill=0;dashed=1;entryX=0.5;entryY=0;entryDx=0;entryDy=0;" edge="1" parent="1" source="5HpX7BQeGc_26zsiggS--4" target="5HpX7BQeGc_26zsiggS--9">
          <mxGeometry width="60" height="60" relative="1" as="geometry">
            <mxPoint x="-100" y="430" as="sourcePoint" />
            <mxPoint x="-200" y="340" as="targetPoint" />
            <Array as="points">
              <mxPoint x="-250" y="290" />
            </Array>
          </mxGeometry>
        </mxCell>
        <mxCell id="5HpX7BQeGc_26zsiggS--15" value="" style="edgeStyle=entityRelationEdgeStyle;fontSize=12;html=1;endArrow=blockThin;endFill=1;startArrow=none;rounded=0;startFill=0;dashed=1;entryX=0.5;entryY=0;entryDx=0;entryDy=0;" edge="1" parent="1" source="5HpX7BQeGc_26zsiggS--4" target="5HpX7BQeGc_26zsiggS--8">
          <mxGeometry width="60" height="60" relative="1" as="geometry">
            <mxPoint x="380" y="440" as="sourcePoint" />
            <mxPoint x="440" y="380" as="targetPoint" />
          </mxGeometry>
        </mxCell>
        <mxCell id="5HpX7BQeGc_26zsiggS--16" value="" style="edgeStyle=entityRelationEdgeStyle;fontSize=12;html=1;endArrow=blockThin;endFill=1;startArrow=none;rounded=0;startFill=0;dashed=1;" edge="1" parent="1" source="5HpX7BQeGc_26zsiggS--3">
          <mxGeometry width="60" height="60" relative="1" as="geometry">
            <mxPoint x="380" y="440" as="sourcePoint" />
            <mxPoint x="120" y="430" as="targetPoint" />
          </mxGeometry>
        </mxCell>
        <mxCell id="5HpX7BQeGc_26zsiggS--17" value="" style="edgeStyle=entityRelationEdgeStyle;fontSize=12;html=1;endArrow=blockThin;endFill=1;startArrow=none;rounded=0;startFill=0;dashed=1;entryX=0.607;entryY=0.022;entryDx=0;entryDy=0;entryPerimeter=0;" edge="1" parent="1" source="5HpX7BQeGc_26zsiggS--2" target="5HpX7BQeGc_26zsiggS--12">
          <mxGeometry width="60" height="60" relative="1" as="geometry">
            <mxPoint x="380" y="440" as="sourcePoint" />
            <mxPoint x="440" y="380" as="targetPoint" />
          </mxGeometry>
        </mxCell>
        <mxCell id="5HpX7BQeGc_26zsiggS--18" value="" style="edgeStyle=entityRelationEdgeStyle;fontSize=12;html=1;endArrow=blockThin;endFill=1;startArrow=none;rounded=0;startFill=0;dashed=1;" edge="1" parent="1" source="5HpX7BQeGc_26zsiggS--1">
          <mxGeometry width="60" height="60" relative="1" as="geometry">
            <mxPoint x="380" y="440" as="sourcePoint" />
            <mxPoint x="440" y="380" as="targetPoint" />
          </mxGeometry>
        </mxCell>
      </root>
    </mxGraphModel>
  </diagram>
</mxfile>
